<svg xmlns="http://www.w3.org/2000/svg" xmlns:xlink="http://www.w3.org/1999/xlink" version="1.1" x="0px" y="0px" viewBox="0 0 100 100" xml:space="preserve">
  <g>
    <path fill="#000" d="M84,2H30c-1.7,0-3,1.3-3,3v11H16c-1.7,0-3,1.3-3,3v77c0,1.7,1.3,3,3,3h54c1.7,0,3-1.3,3-3V85h11c1.7,0,3-1.3,3-3V5   C87,3.3,85.7,2,84,2z M67,93H19V22h48V93z M81,79h-8V19c0-1.7-1.3-3-3-3H33V8h48V79z"/>
    <g>
      <path fill="#000" d="M58,60H28c-1.7,0-3-1.3-3-3s1.3-3,3-3h30c1.7,0,3,1.3,3,3S59.7,60,58,60z"/>
      <path fill="#000" d="M58,75H28c-1.7,0-3-1.3-3-3s1.3-3,3-3h30c1.7,0,3,1.3,3,3S59.7,75,58,75z"/>
      <path fill="#000" d="M58,45H28c-1.7,0-3-1.3-3-3s1.3-3,3-3h30c1.7,0,3,1.3,3,3S59.7,45,58,45z"/>
    </g>
  </g>
</svg>
